<svg width="16" height="16" viewBox="0 0 16 16" fill="none" xmlns="http://www.w3.org/2000/svg">
<path fill-rule="evenodd" clip-rule="evenodd" d="M0.666748 7.99996C0.666748 3.94987 3.94999 0.666626 8.00008 0.666626C12.0502 0.666626 15.3334 3.94987 15.3334 7.99996C15.3334 12.05 12.0502 15.3333 8.00008 15.3333C3.94999 15.3333 0.666748 12.05 0.666748 7.99996Z" fill="#333333"/>
<path fill-rule="evenodd" clip-rule="evenodd" d="M11.5405 5.36194C11.8009 5.62229 11.8009 6.0444 11.5405 6.30475L7.40248 10.6381C7.14213 10.8984 6.72002 10.8984 6.45967 10.6381L4.45967 8.63808C4.19932 8.37773 4.19932 7.95562 4.45967 7.69527C4.72002 7.43492 5.14213 7.43492 5.40248 7.69527L6.93107 9.22387L10.5977 5.36194C10.8581 5.10159 11.2802 5.10159 11.5405 5.36194Z" fill="white"/>
</svg>
